<svg xmlns="http://www.w3.org/2000/svg" viewBox="0 0 512 512" width="512" height="512">
  <defs>
    <linearGradient id="strandA" x1="0%" y1="0%" x2="0%" y2="100%">
      <stop offset="0%" style="stop-color:#E07A5F"/>
      <stop offset="100%" style="stop-color:#C45B3C"/>
    </linearGradient>
    <linearGradient id="strandB" x1="0%" y1="0%" x2="0%" y2="100%">
      <stop offset="0%" style="stop-color:#3D85C6"/>
      <stop offset="100%" style="stop-color:#2A6BAD"/>
    </linearGradient>
    <linearGradient id="strandC" x1="0%" y1="0%" x2="0%" y2="100%">
      <stop offset="0%" style="stop-color:#81B29A"/>
      <stop offset="100%" style="stop-color:#5E9B7E"/>
    </linearGradient>
    <linearGradient id="strandD" x1="0%" y1="0%" x2="0%" y2="100%">
      <stop offset="0%" style="stop-color:#F2CC8F"/>
      <stop offset="100%" style="stop-color:#D4A95A"/>
    </linearGradient>
    <linearGradient id="tieGrad" x1="0%" y1="0%" x2="100%" y2="0%">
      <stop offset="0%" style="stop-color:#9B72AA"/>
      <stop offset="100%" style="stop-color:#7D5691"/>
    </linearGradient>
    <filter id="soft" x="-10%" y="-10%" width="120%" height="120%">
      <feDropShadow dx="0" dy="2" stdDeviation="3" flood-color="#00000040"/>
    </filter>
  </defs>

  <!-- Badge background -->
  <circle cx="256" cy="256" r="240" fill="#1a1a2e"/>
  <circle cx="256" cy="256" r="232" fill="none" stroke="#2d2d4a" stroke-width="1.5"/>

  <!-- A hank: a coiled skein of yarn, wound into a loop and tied in the middle.
       Four strands wound as tall rings; a tie band cinches the coil. -->
  <g filter="url(#soft)" fill="none" stroke-linecap="round">
    <!-- wound rings (each an elongated loop) -->
    <ellipse cx="212" cy="256" rx="30" ry="150" stroke="url(#strandA)" stroke-width="14"/>
    <ellipse cx="238" cy="256" rx="30" ry="158" stroke="url(#strandB)" stroke-width="14"/>
    <ellipse cx="274" cy="256" rx="30" ry="158" stroke="url(#strandC)" stroke-width="14"/>
    <ellipse cx="300" cy="256" rx="30" ry="150" stroke="url(#strandD)" stroke-width="14"/>
  </g>

  <!-- Tie band cinching the hank at its waist -->
  <rect x="176" y="238" width="160" height="36" rx="18" fill="url(#tieGrad)" filter="url(#soft)"/>
  <rect x="176" y="238" width="160" height="36" rx="18" fill="none" stroke="#ffffff22" stroke-width="1.5"/>

  <!-- Live-structure hint: small graph nodes + edges overlaid on the coil -->
  <line x1="212" y1="130" x2="300" y2="130" stroke="#ffffff22" stroke-width="1.5"/>
  <line x1="238" y1="382" x2="274" y2="382" stroke="#ffffff22" stroke-width="1.5"/>
  <line x1="212" y1="130" x2="238" y2="382" stroke="#ffffff14" stroke-width="1.5"/>
  <circle cx="212" cy="130" r="6" fill="#E07A5F" stroke="#1a1a2e" stroke-width="2"/>
  <circle cx="300" cy="130" r="6" fill="#F2CC8F" stroke="#1a1a2e" stroke-width="2"/>
  <circle cx="238" cy="382" r="6" fill="#3D85C6" stroke="#1a1a2e" stroke-width="2"/>
  <circle cx="274" cy="382" r="6" fill="#81B29A" stroke="#1a1a2e" stroke-width="2"/>
</svg>
